<?xml version="1.0" encoding="utf-8" standalone="no"?>
<!DOCTYPE svg PUBLIC "-//W3C//DTD SVG 1.1//EN"
  "http://www.w3.org/Graphics/SVG/1.1/DTD/svg11.dtd">
<svg xmlns:xlink="http://www.w3.org/1999/xlink" width="1008pt" height="288pt" viewBox="0 0 1008 288" xmlns="http://www.w3.org/2000/svg" version="1.1">
 <metadata>
  <rdf:RDF xmlns:dc="http://purl.org/dc/elements/1.1/" xmlns:cc="http://creativecommons.org/ns#" xmlns:rdf="http://www.w3.org/1999/02/22-rdf-syntax-ns#">
   <cc:Work>
    <dc:type rdf:resource="http://purl.org/dc/dcmitype/StillImage"/>
    <dc:date>2026-05-06T17:22:50.062499</dc:date>
    <dc:format>image/svg+xml</dc:format>
    <dc:creator>
     <cc:Agent>
      <dc:title>Matplotlib v3.10.8, https://matplotlib.org/</dc:title>
     </cc:Agent>
    </dc:creator>
   </cc:Work>
  </rdf:RDF>
 </metadata>
 <defs>
  <style type="text/css">*{stroke-linejoin: round; stroke-linecap: butt}</style>
 </defs>
 <g id="figure_1">
  <g id="patch_1">
   <path d="M 0 288 
L 1008 288 
L 1008 0 
L 0 0 
L 0 288 
z
" style="fill: none; opacity: 0"/>
  </g>
  <g id="axes_1">
   <g id="patch_2">
    <path d="M 57.6 108 
L 212.4 108 
L 255.6 64.8 
L 100.8 64.8 
z
" clip-path="url(#peb465f77d3)" style="fill: #00185c"/>
   </g>
   <g id="patch_3">
    <path d="M 57.6 187.2 
L 183.6 187.2 
L 226.8 144 
L 100.8 144 
z
" clip-path="url(#peb465f77d3)" style="fill: #0d5bff"/>
   </g>
   <g id="patch_4">
    <path d="M 57.6 259.2 
L 86.4 230.4 
L 86.4 187.2 
L 57.6 187.2 
L 14.4 230.4 
L 14.4 288 
z
" clip-path="url(#peb465f77d3)" style="fill: #00185c"/>
   </g>
   <g id="patch_5">
    <path d="M 352.2915 109.36575 
L 428.97825 109.36575 
L 428.97825 130.8645 
L 380.712375 130.8645 
L 380.712375 151.371 
L 426.119625 151.371 
L 426.119625 172.86975 
L 380.712375 172.86975 
L 380.712375 219.6 
L 352.2915 219.6 
L 352.2915 109.36575 
z
M 454.395797 136.9125 
L 480.808547 136.9125 
L 480.808547 219.6 
L 454.395797 219.6 
L 454.395797 136.9125 
z
M 454.395797 104.711625 
L 480.808547 104.711625 
L 480.808547 126.28125 
L 454.395797 126.28125 
L 454.395797 104.711625 
z
M 589.335891 169.255125 
L 589.335891 219.6 
L 562.757766 219.6 
L 562.757766 211.402125 
L 562.757766 181.067625 
Q 562.757766 170.3655 562.285266 166.302 
Q 561.812766 162.2385 560.631516 160.324875 
Q 559.072266 157.726125 556.402641 156.285 
Q 553.756641 154.843875 550.354641 154.843875 
Q 542.085891 154.843875 537.360891 161.24625 
Q 532.635891 167.625 532.635891 178.91775 
L 532.635891 219.6 
L 506.223141 219.6 
L 506.223141 136.9125 
L 532.635891 136.9125 
L 532.635891 149.0085 
Q 538.613016 141.77925 545.322516 138.353625 
Q 552.055641 134.928 560.182641 134.928 
Q 574.499391 134.928 581.917641 143.7165 
Q 589.335891 152.481375 589.335891 169.255125 
z
M 613.864547 104.711625 
L 640.277297 104.711625 
L 640.277297 167.247 
L 670.706297 136.9125 
L 701.418797 136.9125 
L 661.020047 174.85425 
L 704.584547 219.6 
L 672.549047 219.6 
L 640.277297 185.131125 
L 640.277297 219.6 
L 613.864547 219.6 
L 613.864547 104.711625 
z
M 714.418453 104.711625 
L 740.831203 104.711625 
L 740.831203 219.6 
L 714.418453 219.6 
L 714.418453 104.711625 
z
M 848.767922 178.043625 
L 848.767922 185.556375 
L 786.988547 185.556375 
Q 787.933547 194.864625 793.698047 199.51875 
Q 799.462547 204.172875 809.786672 204.172875 
Q 818.126297 204.172875 826.867547 201.69225 
Q 835.632422 199.211625 844.869797 194.203125 
L 844.869797 214.567875 
Q 835.490672 218.111625 826.111547 219.93075 
Q 816.732422 221.749875 807.353297 221.749875 
Q 784.909547 221.749875 772.459172 210.339 
Q 760.032422 198.928125 760.032422 178.327125 
Q 760.032422 158.104125 772.246547 146.527875 
Q 784.460672 134.928 805.888547 134.928 
Q 825.379172 134.928 837.073547 146.669625 
Q 848.767922 158.387625 848.767922 178.043625 
z
M 821.599172 169.255125 
Q 821.599172 161.71875 817.204922 157.111875 
Q 812.810672 152.481375 805.723172 152.481375 
Q 798.045047 152.481375 793.249172 156.80475 
Q 788.453297 161.128125 787.272047 169.255125 
L 821.599172 169.255125 
z
M 857.925562 136.9125 
L 884.361937 136.9125 
L 906.593062 193.021875 
L 925.493062 136.9125 
L 951.905813 136.9125 
L 917.129812 227.419875 
Q 911.908688 241.2405 904.915687 246.7215 
Q 897.946312 252.226125 886.511813 252.226125 
L 871.226437 252.226125 
L 871.226437 234.885375 
L 879.495187 234.885375 
Q 886.204687 234.885375 889.252313 232.7355 
Q 892.323562 230.60925 894.024562 225.057375 
L 894.780562 222.76575 
L 857.925562 136.9125 
z
" clip-path="url(#peb465f77d3)" style="fill: #00185c"/>
   </g>
  </g>
 </g>
 <defs>
  <clipPath id="peb465f77d3">
   <rect x="0" y="0" width="1008" height="288"/>
  </clipPath>
 </defs>
</svg>
